<?xml version="1.0" standalone="no"?>
<!DOCTYPE svg PUBLIC "-//W3C//DTD SVG 20010904//EN"
 "http://www.w3.org/TR/2001/REC-SVG-20010904/DTD/svg10.dtd">
<svg version="1.0" xmlns="http://www.w3.org/2000/svg"
 width="156.000000pt" height="156.000000pt" viewBox="0 0 156.000000 156.000000"
 preserveAspectRatio="xMidYMid meet">
<metadata>
Created by potrace 1.11, written by Peter Selinger 2001-2013
</metadata>
<g transform="translate(0.000000,156.000000) scale(0.100000,-0.100000)"
fill="#000000" stroke="none">
<path d="M610 1549 c-229 -27 -334 -133 -348 -351 l-5 -88 -46 -1 c-25 -1 -53
-1 -62 0 -13 1 -16 -15 -18 -114 l-2 -115 28 -1 c15 0 44 -2 63 -2 l35 -2 2
-270 c1 -148 2 -345 3 -437 l0 -168 140 0 c77 0 140 3 141 8 0 4 1 201 1 438
l1 431 86 1 c47 0 91 1 96 1 6 1 10 47 10 116 l1 115 -99 0 -98 0 5 61 c4 33
13 73 21 88 16 33 63 55 117 56 21 0 39 2 39 5 8 29 2 230 -6 231 -5 0 -19 2
-30 3 -11 1 -45 -1 -75 -5z"/>
<path d="M1327 1554 c-1 -1 -25 -4 -53 -8 -201 -23 -309 -139 -321 -343 l-6
-93 -61 0 -62 0 -2 -115 c-1 -63 2 -115 6 -116 4 0 32 -1 62 -2 l55 -2 2 -405
c1 -223 2 -420 3 -437 l0 -33 140 0 140 0 1 38 c0 20 1 217 2 437 l2 400 85 2
c47 1 90 2 96 2 14 1 14 213 0 224 -6 4 -38 7 -71 6 -126 -2 -116 -7 -110 61
8 102 36 133 130 145 21 3 42 9 45 14 4 7 5 174 1 216 -1 8 -76 16 -84 9z"/>
</g>
</svg>
